<svg enable-background="new 0 0 90 90" viewBox="0 0 90 90" xmlns="http://www.w3.org/2000/svg"><path d="m20.1 26.1h61.8v57.5h-61.8z" fill="#fff"/><g fill="#008957"><path d="m40.3 55.2c0-.5 0-1 0-1.4 0-3.7-.5-4-4.1-3.4-.1 0-.1 0-.2 0-2.8.5-4.2 2.4-4 5.3s1.8 4.4 4.6 4.5h1.8c1.3 0 2.1-.4 1.9-1.9-.1-1.1 0-2.1 0-3.1z"/><path d="m67.4 52.7c.3-1.7-.6-2.2-2.1-2.4-4.5-.8-8 1.6-6.8 7.4.5 2.5 2.1 3.6 4.7 3.5 2.3-.1 3.5-1.2 3.9-3.8.2-1.1.2-2.1.3-3.2h-.1c.1-.5 0-1 .1-1.5z"/><path d="m76.7 0h-63.4c-7.4 0-13.3 5.9-13.3 13.3v63.5c0 7.3 5.9 13.2 13.3 13.2h63.5c7.3 0 13.2-5.9 13.2-13.3v-63.4c0-7.4-5.9-13.3-13.3-13.3zm-27.8 57.5v9.2c0 7.4-3.9 11.6-11.4 12.2-4.2.3-8.1-.6-11.9-2.3-.9-.4-1.2-.8-.8-1.8.6-1.2 1-2.6 1.3-3.9.3-1.1.8-1.1 1.8-.7 3.1 1.3 6.3 2 9.7 1.2 1.1-.3 2-.9 2.4-2 .8-1.9.2-2.6-1.8-2.3-2.1.3-4.2.4-6.3-.1-5.4-1.3-8.6-5.8-8.3-11.9.3-6.7 4.8-11.3 11.7-11.8 3.9-.3 7.8.1 11.6 1.3 1.4.4 2 1 2 2.6-.1 3.3 0 6.8 0 10.3zm29.9 5.5v1.8c0 3.5 0 3.5-3.6 3.4-2.3-.1-4.5-.4-5.9-2.6-.5-.8-.8-.4-1.2 0-3.5 3.1-7.5 3.7-11.8 1.8s-6-5.7-6.3-10.2c-.1-1.6-.1-3.2.2-4.8 1.5-7.2 7.2-10.4 14.7-9.1.7.1 1.4.3 2.4.6 0-3.1.1-6.1 0-9.1-.1-1.8.5-2.3 2.2-2.1 1.6.1 3.1.1 4.7 0 1.4-.1 1.7.4 1.7 1.7-.1 7.6 0 15.3 0 22.9 0 .8.1 1.6.2 2.3.1.6.4 1.3 1.1 1.2 1.7-.1 1.6 1 1.6 2.2z"/></g></svg>