<?xml version="1.0" encoding="utf-8"?>
<!-- Generator: Adobe Illustrator 23.0.1, SVG Export Plug-In . SVG Version: 6.00 Build 0)  -->
<svg version="1.1" id="Слой_1" xmlns="http://www.w3.org/2000/svg" xmlns:xlink="http://www.w3.org/1999/xlink" x="0px" y="0px"
	 viewBox="0 0 28.35 28.35" style="enable-background:new 0 0 28.35 28.35;" xml:space="preserve">
<style type="text/css">
	.st0{fill:#FFFFFF;}
</style>
<g id="SD5hoW_1_">
	<g>
		<path class="st0" d="M13.8,0c0.25,0,0.5,0,0.75,0c3.87,2.34,7.73,4.68,11.6,7c0.73,0.43,1.05,0.97,1.04,1.83
			c-0.03,3.59-0.04,7.17,0,10.76c0.01,0.9-0.31,1.45-1.07,1.9c-3.63,2.14-7.24,4.3-10.83,6.49c-0.81,0.49-1.46,0.48-2.26-0.01
			c-3.59-2.19-7.21-4.35-10.83-6.5c-0.41-0.24-0.76-0.53-1.06-0.9c0-4.22,0-8.43,0-12.65c0.3-0.41,0.69-0.7,1.13-0.96
			C6.12,4.65,9.96,2.32,13.8,0z M24.75,10.5c-3.1,1.86-6,3.61-8.91,5.34c-0.39,0.23-0.47,0.52-0.47,0.93c0.01,2.48,0.02,4.96,0,7.44
			c0,0.62,0.11,0.81,0.72,0.44c2.7-1.65,5.43-3.27,8.14-4.9c0.27-0.16,0.52-0.32,0.52-0.71C24.74,16.26,24.75,13.47,24.75,10.5z
			 M3.6,10.52c0,2.95,0,5.74,0,8.53c0,0.44,0.32,0.57,0.61,0.75c2.67,1.6,5.34,3.19,7.99,4.81c0.66,0.4,0.77,0.23,0.76-0.45
			c-0.02-2.45-0.03-4.9,0.01-7.36c0.01-0.57-0.25-0.84-0.69-1.1c-2.16-1.28-4.31-2.58-6.47-3.87C5.13,11.42,4.43,11.01,3.6,10.52z
			 M4.77,8.34c1.06,0.64,1.99,1.16,2.88,1.75c0.47,0.31,0.81,0.27,1.27-0.01c2.7-1.65,5.42-3.27,8.13-4.9
			c0.17-0.1,0.42-0.14,0.46-0.47c-0.97-0.59-1.97-1.18-2.95-1.78c-0.27-0.17-0.5-0.17-0.78,0C10.84,4.7,7.89,6.47,4.77,8.34z
			 M10.68,11.87c1.04,0.63,1.97,1.14,2.84,1.73c0.5,0.34,0.85,0.28,1.34-0.02c2.27-1.4,4.56-2.75,6.84-4.13
			c0.58-0.35,1.15-0.7,1.85-1.13c-1.14-0.69-2.16-1.29-3.16-1.92c-0.31-0.2-0.52-0.07-0.77,0.07C16.7,8.25,13.77,10.01,10.68,11.87z
			"/>
	</g>
</g>
</svg>
