<?xml version="1.0" encoding="utf-8"?>
<!-- Generator: Adobe Illustrator 23.0.1, SVG Export Plug-In . SVG Version: 6.00 Build 0)  -->
<svg version="1.1" id="Слой_1" xmlns="http://www.w3.org/2000/svg" xmlns:xlink="http://www.w3.org/1999/xlink" x="0px" y="0px"
	 viewBox="0 0 28.35 28.35" style="enable-background:new 0 0 28.35 28.35;" xml:space="preserve">
<style type="text/css">
	.st0{fill:#FFFFFF;}
</style>
<g id="_x37_0oq3Y_1_">
	<g>
		<path class="st0" d="M24.66,24.15c-6.93,0-13.86,0-20.79,0c-0.05-0.04-0.11-0.04-0.16-0.04c-2.04-0.26-3.69-2.07-3.69-4.12
			C0,16.12,0,12.26,0.01,8.4c0.01-1.27,0.53-2.34,1.5-3.17C2.33,4.52,3.29,4.2,4.36,4.2c2.23,0,4.46,0,6.68,0c4.37,0,8.74,0,13.11,0
			c1.42,0,2.58,0.55,3.47,1.66c0.33,0.41,0.54,0.88,0.73,1.37c0,4.64,0,9.29,0,13.93c-0.07,0.03-0.06,0.11-0.08,0.16
			c-0.49,1.29-1.39,2.15-2.68,2.61C25.28,24.04,24.97,24.08,24.66,24.15z M14.29,21.88c1.26,0,2.52,0,3.78,0c2.03,0,4.06,0.01,6.1,0
			c1.25-0.01,2.08-0.87,2.08-2.12c0-1.77,0-3.54,0-5.32c0-0.21-0.05-0.26-0.26-0.26c-3.8,0.01-7.59,0.01-11.39,0.01
			c-4.04,0-8.07,0-12.11,0c-0.16,0-0.21,0.05-0.21,0.21c0,1.82,0,3.63,0.01,5.45c0,0.15,0.02,0.3,0.05,0.45
			c0.2,0.95,1.02,1.6,2.04,1.6C7.68,21.88,10.98,21.88,14.29,21.88z M14.25,9.91c1.93,0,3.86,0,5.79,0c2,0,3.99,0,5.99,0
			c0.16,0,0.22-0.04,0.21-0.21c-0.01-0.41,0-0.82,0-1.24c0-0.27-0.05-0.53-0.16-0.78c-0.4-0.82-1.05-1.21-1.96-1.21
			c-4.17,0.01-8.33,0-12.5,0c-2.41,0-4.82,0-7.22,0c-1.25,0-2.09,0.84-2.11,2.09c0,0.35,0.01,0.71-0.01,1.06
			C2.27,9.86,2.34,9.91,2.56,9.91C6.45,9.9,10.35,9.91,14.25,9.91z"/>
	</g>
</g>
</svg>
