<svg enable-background="new 0 0 28.35 28.35" viewBox="0 0 28.35 28.35" xmlns="http://www.w3.org/2000/svg"><g fill="#fff"><path d="m14.12 16.45c-3.63-.04-7.32-.22-10.94-1.08-.87-.21-1.73-.46-2.49-.94-.93-.59-.93-1.22.02-1.79 1.39-.82 2.95-1.1 4.51-1.34.57-.09.75-.33.86-.84.42-1.95 1.13-3.81 1.93-5.63.49-1.11 1.36-1.51 2.56-1.29.56.1 1.08.31 1.59.53 1.34.58 2.66.6 4 .01.51-.22 1.03-.43 1.59-.54 1.23-.23 2.12.18 2.61 1.32.79 1.82 1.5 3.68 1.91 5.63.1.48.27.73.81.79 1.21.15 2.41.43 3.55.87.38.15.76.32 1.09.54.82.54.82 1.13.01 1.66-.97.65-2.1.91-3.22 1.15-3.39.74-6.85.92-10.39.95z"/><path d="m23 19.17v1.07c-.02 3.5-3.6 5.66-6.72 4.07-.11-.06-.23-.11-.33-.19-1.18-.85-2.31-.8-3.54-.02-1.48.95-3.08 1-4.65.19-1.47-.76-2.29-2-2.39-3.66-.06-1.02 0-2.04-.02-3.06-.01-.4.1-.52.53-.47 5.53.75 11.07.76 16.6 0 .4-.06.56.02.54.45-.04.55-.02 1.09-.02 1.62zm-13.15 2.14c.66-.05 1.3-.16 1.84-.6.35-.29.38-.54.03-.87-.86-.79-2.89-.8-3.76-.02-.39.34-.35.63.03.92.55.42 1.19.53 1.86.57zm8.7.2c.56-.04 1.2-.15 1.74-.58.34-.27.41-.53.05-.87-.86-.81-2.98-.81-3.82.01-.31.3-.31.55.01.82.55.46 1.21.6 2.02.62z"/></g></svg>