<?xml version="1.0" encoding="utf-8"?>
<!-- Generator: Adobe Illustrator 26.4.1, SVG Export Plug-In . SVG Version: 6.00 Build 0)  -->
<svg version="1.1" id="Слой_1" xmlns="http://www.w3.org/2000/svg" xmlns:xlink="http://www.w3.org/1999/xlink" x="0px" y="0px"
	 viewBox="0 0 218 66" style="enable-background:new 0 0 218 66;" xml:space="preserve">
<style type="text/css">
	.st0{fill:url(#SVGID_1_);}
	.st1{fill:url(#SVGID_00000137818885182813878740000000777972392531988124_);}
	.st2{fill:url(#SVGID_00000117677597361393648750000013495589524771022006_);}
	.st3{fill:url(#SVGID_00000028317228158522536070000013357722091468016298_);}
	.st4{fill:url(#SVGID_00000083053218221998183230000015866950136881686929_);}
</style>
<g id="ZKJMNB_00000106826546215588975360000003459643117793197981_">
	<g>
		<linearGradient id="SVGID_1_" gradientUnits="userSpaceOnUse" x1="169.8093" y1="67.5464" x2="160.7551" y2="-11.8835">
			<stop  offset="0" style="stop-color:#EF87E2"/>
			<stop  offset="1" style="stop-color:#F56482"/>
		</linearGradient>
		<path class="st0" d="M167.17,43.1c-1.67,1.31-3.27,2.67-4.98,3.88c-3.12,2.2-6.24,4.38-10.31,4.51c-4.64,0.15-6.25-1.6-7.6-4.8
			c-1.35-3.19-0.76-6.52-0.46-9.8c0.14-1.53,0.58-3.03,0.75-4.59c-3.09,7.2-5.02,14.79-7.3,22.31c-1.34-0.73-2.33-2.24-3.81-0.59
			c-0.27,0.3-2.69-1.43-2.61-1.9c0.62-3.54-1.08-6.79-1.3-10.23c-0.2-3.1-0.76-6.17-1.17-9.35c-0.98,1.48-1.38,3.2-1.9,4.82
			c-1.64,5.16-3.06,10.4-3.78,15.78c-0.18,1.33-0.31,2.69-0.45,4.04c-0.07,0.63-0.19,1.28-0.92,0.96c-1.41-0.63-2.9-0.25-4.27-0.27
			c-2.45-0.04-2.02-1.25-1.86-2.74c1.4-12.99,6.07-24.99,11.14-36.87c0.93-2.19,2.28-2.47,5.08-1.42c1.82,0.68,2.61,2,2.82,3.85
			c0.5,4.46,1.05,8.91,1.64,13.88c0.76-1.96,1.4-3.49,1.95-5.04c2.07-5.75,4.54-11.34,6.97-16.95c0.54-1.24,1.16-2.8,2.96-1.2
			c0.17,0.15,0.46,0.19,0.7,0.25c3.57,0.9,3.81,1.38,2.34,4.88c2.09-0.88,4.02-1.99,6.09-2.48c2.35-0.55,4.55,0.36,6.28,2.07
			c3.51,3.47,3.03,7.79,1.42,11.58c-1.49,3.49-4.01,6.3-7.16,8.5c-1.9,1.33-3.79,2.66-5.67,4.01c-0.48,0.35-1.02,0.63-1.09,1.4
			c-0.23,2.41,0.46,3.01,2.73,2.12c3.44-1.35,6.28-3.61,8.89-6.16c1.35-1.31,2.44-2.5,4.58-1.15c1.47,0.93,2.55,0.51,3.12-1.58
			c1.18-4.35,2.73-8.61,4.25-12.86c0.38-1.05-0.19-1.74-0.4-2.57c-0.2-0.77-0.69-1.47-0.88-2.24c-0.46-1.88,0.16-2.77,2.14-2.84
			c1.68-0.06,3.39-0.3,4.87-0.86c3.92-1.49,7.81-1.36,11.68-0.29c3.01,0.83,5.68,2.29,6.89,5.58c0.61,1.65,0.14,3.16-0.06,4.83
			c4.5-3.76,8.96-7.36,14-10.15c1.71-0.95,3.8-0.14,4.65,1.73c0.84,1.86,0.16,3.4-1.67,4.42c-3.91,2.2-7.28,5.11-10.7,8.26
			c2.4,0.79,4.58,1.45,6.73,2.22c3.64,1.31,5.92,4.05,6.41,7.7c0.3,2.21,0.02,4.67-1.58,6.79c-2.92,3.86-6.83,6.33-10.95,8.62
			c-1.67,0.93-3.71,1.31-4.8,3.29c-0.2,0.36-1.23,1.08-1.96,1.39c-0.97,0.41-1.69-0.21-2.38-0.97c-4.92-5.49-10.24-10.62-14.7-16.52
			c-0.72-0.95-1.69-1.38-2.82-0.27c-0.88,0.86-1.84,1.66-3.15,1.91c-0.65,0.12-0.59,0.87-0.71,1.35c-1.27,5.17-2.5,10.34-3.76,15.51
			c-0.27,1.11-0.84,1.27-2.1,1.4c-1.65,0.17-2.81-1.25-4.48-0.7c-0.91,0.3-0.67-0.8-0.55-1.35c1.06-4.54,2.15-9.06,3.22-13.6
			C167.3,44.17,167.59,43.69,167.17,43.1z M195.67,27.87c-2.78,2.44-5.51,4.81-8.54,6.82c-0.62,0.41-0.65,0.73-0.14,1.31
			c3.49,3.91,6.78,8.02,10.46,11.77c0.46,0.47,0.86,0.87,1.6,0.5c3.24-1.63,6.54-3.18,9.25-5.64c3.45-3.13,3.02-5-1.38-6.55
			c-2.65-0.93-5.47-1.3-8.06-2.43c-0.95-0.41-2.02-0.93-2.15-1.92C196.56,30.41,195.91,29.29,195.67,27.87z M178.75,31.56
			c4.4-2.75,8.88-5.33,12.23-9.39c0.95-1.15,0.72-1.87-0.75-2.21c-2.2-0.5-4.45-0.54-6.7-0.68c-0.95-0.06-1.15,0.56-1.37,1.21
			c-1.11,3.22-2.22,6.44-3.33,9.66C178.69,30.56,178.46,30.95,178.75,31.56z M153.16,30.2c2.33-1.59,4.05-3.6,5.02-6.18
			c0.35-0.94,0.6-1.96-0.21-2.82c-0.5-0.53-0.98-0.73-1.41,0.16C155.17,24.21,153.89,27.09,153.16,30.2z"/>
		
			<linearGradient id="SVGID_00000150099290378025470800000002849223990572613040_" gradientUnits="userSpaceOnUse" x1="48.8968" y1="81.3292" x2="39.8426" y2="1.8992">
			<stop  offset="0" style="stop-color:#EF87E2"/>
			<stop  offset="1" style="stop-color:#F56482"/>
		</linearGradient>
		<path style="fill:url(#SVGID_00000150099290378025470800000002849223990572613040_);" d="M12.82,13.62
			c-1.4-0.12-2.52,0.51-3.71,0.75c-1.86,0.39-2.36,0.03-2.35-1.79c0-0.74-0.01-1.48,0.05-2.22c0.22-2.66,1.1-3.99,3.45-4.52
			C15.02,4.79,19.83,4,24.74,4.48c3.85,0.38,6.22,2.88,8.29,5.78c0.53,0.73,0.71,1.67,0.53,2.51c-0.63,3.07-1.77,5.96-3.97,8.23
			c-1.2,1.24-2.75,2.15-4.13,3.21c-0.29,0.22-0.55,0.46-0.97,0.81c0.78,0.19,1.37,0.4,1.96,0.47c2.21,0.26,4.2,0.97,6,2.33
			c1.72,1.3,1.72,1.2,2.52-0.9c0.91-2.39,2.06-4.69,2.87-7.1c0.88-2.61,2.65-4.22,5.14-5.03c2.34-0.76,4.73-1.48,7.11,0.15
			c2.43,1.67,3.94,3.8,4.08,6.79c0.26,5.49-2.56,9.53-6.41,12.92c-2.29,2.01-4.92,3.63-7.4,5.43c-0.59,0.43-1.23,0.74-1.26,1.69
			c-0.06,2.22,0.53,2.78,2.58,2c3.63-1.38,6.55-3.84,9.37-6.43c0.76-0.7,1.24-2.14,2.87-1.5c0.41,0.16,0.65-0.81,0.92-1.28
			c3.95-6.85,8.99-12.76,15.31-17.54c1.75-1.33,3.7-2.32,5.82-2.96c2.49-0.75,5.01,0.27,6.29,2.52c0.26,0.46,0.43,1.02,0.28,1.38
			c-0.89,2.13,0.46,1.53,1.56,1.38c1.27-0.18,2.44,0.29,3.59,0.73c0.58,0.22,0.37,0.87,0.38,1.34c0.07,2.47-0.49,4.84-1.2,7.17
			c-2.58,8.4-5.09,16.82-9.29,24.61c-3.48,6.46-8.76,10.21-16.18,10.89c-1.84,0.17-3.6-0.24-5.4-0.35c-1.84-0.11-1.94-1.68-2.2-2.82
			c-0.34-1.49-0.11-3.16,0.72-4.44c0.67-1.03,2.06-0.6,3.13-0.41c6.72,1.19,10.34-0.51,13.76-6.58c1.58-2.81,2.92-5.73,3.94-9.08
			c-0.9,0.35-1.41,0.67-1.96,1.06c-4.37,3.07-8.96,5.69-14.45,6.15c-1.55,0.13-2.9-0.1-3.85-1.66c-0.63-1.04-1.61-1.26-2.77-0.28
			c-2.25,1.89-4.68,3.53-7.39,4.73c-2.38,1.05-4.83,1.52-7.4,0.91c-2.72-0.64-4.16-2.55-4.94-5.09c-0.2-0.65-0.47-1.27-0.8-2.15
			c-2.67,2.74-5.36,5.24-8.31,7.45c-5.65,4.24-11.38,8.35-17.29,12.21c-0.76,0.49-2.07,1.5-2.41,1c-0.68-1.03-1.94-1.88-1.9-3.29
			c0.02-0.82-0.23-1.32-0.81-1.9c-1-1.01-1.35-2.23-0.96-3.74c3.57-13.66,6.98-27.36,12.18-40.52
			C12.54,14.78,12.64,14.25,12.82,13.62z M8.97,51.97c0.13,0.11,0.25,0.22,0.38,0.33c1.86-1.33,3.76-2.61,5.58-3.99
			c4.22-3.2,8.63-6.2,12.06-10.32c2.02-2.43,1.7-3.33-1.39-4.17c-2.65-0.72-5.35-0.41-8.02-0.38c-3.61,0.05-3.6,0.12-4.45,3.69
			c-0.13,0.54-0.31,1.08-0.46,1.62C11.43,43.16,10.2,47.57,8.97,51.97z M60.24,40.18c7.07-2.33,12.22-6.41,16.31-11.88
			c1.6-2.14,3.16-4.32,1.23-7.45C69.99,25.28,64.48,31.79,60.24,40.18z M18.87,19.4c2.4-1.79,4.59-3.42,6.79-5.05
			c0.89-0.66,0.88-1.14-0.27-1.39c-0.43-0.09-0.86-0.19-1.29-0.21c-1.12-0.04-2.31-0.28-3.33,0.03c-1.01,0.31-0.13,1.53-0.53,2.33
			C19.62,16.35,19.01,17.64,18.87,19.4z M41.29,30.66c2.68-2.03,4.49-4.1,5.45-6.85c0.25-0.72,0.42-1.44,0.04-2.17
			c-0.21-0.4-0.51-0.75-0.95-0.84c-0.61-0.14-0.67,0.45-0.85,0.8C43.52,24.34,42.39,27.22,41.29,30.66z"/>
		
			<linearGradient id="SVGID_00000163072233279950314250000006045512972665300122_" gradientUnits="userSpaceOnUse" x1="113.2878" y1="73.9893" x2="104.2336" y2="-5.4407">
			<stop  offset="0" style="stop-color:#EF87E2"/>
			<stop  offset="1" style="stop-color:#F56482"/>
		</linearGradient>
		<path style="fill:url(#SVGID_00000163072233279950314250000006045512972665300122_);" d="M111.46,34.08
			c1.83-4.62,3.58-9.14,5.41-13.63c1.13-2.77,2.34-5.51,3.58-8.23c0.51-1.12,1.13-2.23,2.63-0.93c0.37,0.32,1.06,0.28,1.59,0.44
			c2.61,0.79,2.92,1.58,1.83,4.16c-1.97,4.63-3.98,9.25-5.79,13.94c-2.91,7.54-5.32,15.26-7.48,23.04
			c-0.23,0.84-0.18,2.25-1.76,0.89c-0.49-0.42-1.57-0.87-2.43,0.08c-0.44,0.48-3.03-1.15-2.75-1.73c1.07-2.22-0.4-4.09-0.67-6.1
			c-0.55-4.08-1.27-8.13-1.58-12.24c-0.02-0.29-0.14-0.58-0.31-1.31c-2.01,5.05-3.24,9.87-4.45,14.71c-0.82,3.28-1,6.64-1.5,9.96
			c-0.08,0.51-0.21,1.31-0.72,1c-1.28-0.77-2.65,0.5-3.81-0.36c-0.79-0.58-2.24,0.56-2.55-0.82c-0.21-0.92,0.11-1.97,0.22-2.96
			c1.27-11.14,5.11-21.53,9.3-31.82c0.44-1.08,0.85-2.18,1.35-3.24c1.67-3.56,1.95-2.88,5.67-1.8c2.15,0.62,2.31,2.52,2.54,4.25
			c0.47,3.65,0.81,7.31,1.21,10.97C111.04,32.89,111.01,33.46,111.46,34.08z"/>
		
			<linearGradient id="SVGID_00000042720560607544510660000002464909314263611569_" gradientUnits="userSpaceOnUse" x1="94.3319" y1="76.1501" x2="85.2777" y2="-3.2799">
			<stop  offset="0" style="stop-color:#EF87E2"/>
			<stop  offset="1" style="stop-color:#F56482"/>
		</linearGradient>
		<path style="fill:url(#SVGID_00000042720560607544510660000002464909314263611569_);" d="M81.14,51.66
			c0.7-4.74,1.97-9.35,3.39-13.93c1.85-5.94,3.86-11.83,6.19-17.6c0.23-0.58,0.47-1.15,0.77-1.7c1.38-2.49,1.74-2.57,3.88-0.68
			c0.21,0.18,0.36,0.41,0.65,0.54c2.96,1.3,2.84,1.26,1.56,4.24c-4.09,9.51-7.4,19.28-9.2,29.5c-0.34,1.91-1.01,2.34-2.85,1.57
			c-0.88-0.37-1.79-0.45-2.65-0.29C81.42,53.59,80.96,53.03,81.14,51.66z"/>
		
			<linearGradient id="SVGID_00000176743294350358292340000012764511742744216219_" gradientUnits="userSpaceOnUse" x1="107.6165" y1="74.6358" x2="98.5623" y2="-4.7942">
			<stop  offset="0" style="stop-color:#EF87E2"/>
			<stop  offset="1" style="stop-color:#F56482"/>
		</linearGradient>
		<path style="fill:url(#SVGID_00000176743294350358292340000012764511742744216219_);" d="M99.69,15.28
			c-1.41-0.95-3.41-0.52-4.78-1.95c-0.45-0.47-0.47-0.76-0.32-1.23c1.19-3.7,3.01-7.1,4.91-10.47c0.28-0.5,0.73-0.64,1.08-0.38
			c1.52,1.1,3.44,1.54,4.8,2.93c0.51,0.52,0.31,0.86,0.08,1.29c-1.6,2.97-3.1,5.99-4.33,9.12C100.81,15.39,100.17,14.9,99.69,15.28z
			"/>
	</g>
</g>
</svg>
