<?xml version="1.0" encoding="utf-8"?>
<!-- Generator: Adobe Illustrator 26.4.1, SVG Export Plug-In . SVG Version: 6.00 Build 0)  -->
<svg version="1.1" id="Слой_1" xmlns="http://www.w3.org/2000/svg" xmlns:xlink="http://www.w3.org/1999/xlink" x="0px" y="0px"
	 viewBox="0 0 500 500" style="enable-background:new 0 0 500 500;" xml:space="preserve">
<style type="text/css">
	.st0{fill:#FFFFFF;}
</style>
<path class="st0" d="M81.41,355.53c0-12.94-0.03-25.89,0.03-38.83c0.01-1.78-0.55-2.98-1.89-4.16
	c-33.88-29.92-52.13-67.64-56.28-112.48c-2.6-28.08,1.19-55.07,13.23-80.69c15.73-33.5,40.51-58.63,72.33-77
	c28.53-16.47,59.44-24.76,92.25-27.16c73.78-5.4,146.58,41.11,175.83,105.02c16.29,35.59,18.24,72.45,7.14,109.52
	c-19.54,65.27-63.81,104.6-129.88,119.7c-20.01,4.57-40.36,4.89-60.78,3.16c-9.2-0.78-18.41-1.42-27.54-2.77
	c-1.52-0.22-2.56,0.46-3.7,1.12c-25.93,15.02-51.87,30.05-77.8,45.07c-2.92,1.69-2.94,1.68-2.94-1.67c-0.01-12.94,0-25.89,0-38.83
	C81.4,355.53,81.4,355.53,81.41,355.53z M206.61,162.14c-12.1-0.05-21.97,9.73-22.05,21.85c-0.09,12.25,9.77,22.2,22.01,22.19
	c12.17-0.01,21.96-9.73,22.03-21.87C228.65,172.01,218.92,162.19,206.61,162.14z M272.98,183.67c-0.15,12.36,9.51,22.4,21.67,22.52
	c12.28,0.12,22.27-9.64,22.38-21.86c0.1-12.11-9.57-22-21.72-22.2C283.16,161.93,273.12,171.62,272.98,183.67z M140.23,184.04
	c-0.07-12.19-9.8-21.88-21.98-21.89c-12.27-0.01-22.19,9.95-22.05,22.13c0.14,12.33,9.99,22.01,22.3,21.9
	C130.62,206.08,140.29,196.22,140.23,184.04z"/>
<path class="st0" d="M419.47,149.53c11.99,10.03,21.93,20.6,30.43,32.5c19.83,27.75,30.1,58.61,29.09,92.8
	c-1.12,37.9-15.48,70.58-40.49,98.76c-9.2,10.36-19.54,19.47-30.91,27.38c-1.73,1.2-2.16,2.56-2.15,4.53
	c0.05,25.69,0.04,51.39,0.03,77.08c0,0.91,0.47,2.12-0.39,2.65c-0.92,0.57-1.72-0.5-2.48-0.97c-25.78-15.84-51.55-31.69-77.29-47.58
	c-1.62-1-3.11-1.41-5.06-1.11c-22.17,3.42-44.35,3.56-66.51-0.13c-36.56-6.08-67.54-23.12-94.31-48.32
	c-1.23-1.15-2.67-2.13-3.54-3.69c0.96-0.82,2.05-0.45,3.04-0.46c17.79-0.14,35.6,0.44,53.38-0.36c45.08-2.03,87.41-13.37,125-39.09
	c46-31.47,72.9-75.1,80.84-130.3c2.76-19.2,2.3-38.52,1.6-57.84C419.68,153.7,419.59,152.04,419.47,149.53z"/>
</svg>
