<?xml version="1.0" encoding="utf-8"?>
<!-- Generator: Adobe Illustrator 23.0.1, SVG Export Plug-In . SVG Version: 6.00 Build 0)  -->
<svg version="1.1" id="Слой_1" xmlns="http://www.w3.org/2000/svg" xmlns:xlink="http://www.w3.org/1999/xlink" x="0px" y="0px"
	 viewBox="0 0 28.35 28.35" style="enable-background:new 0 0 28.35 28.35;" xml:space="preserve">
<style type="text/css">
	.st0{fill:#FFFFFF;}
</style>
<g id="SuGnoh_1_">
	<g>
		<path class="st0" d="M10.89,4.28c2.28,0,4.56,0,6.84,0c0.86,0,1.57,0.16,1.56,1.24c-0.01,0.41,0.18,0.55,0.55,0.52
			c0.12-0.01,0.24,0.02,0.35,0c2.67-0.57,4.11,0.66,4.97,3.12c0.58,1.66,1.5,3.21,2.74,4.53c0.37,0.39,0.46,0.86,0.45,1.39
			c-0.02,1.62-0.03,3.25,0,4.87c0.02,1.02-0.39,1.52-1.44,1.46c-0.46-0.03-0.93,0.02-1.39-0.01c-0.44-0.03-0.66,0.15-0.89,0.53
			c-1.67,2.81-4.95,2.83-6.59,0.03c-0.25-0.43-0.5-0.6-0.98-0.57c-0.65,0.04-1.31,0.04-1.97,0c-1.27-0.06-2.26,0.02-3.16,1.34
			c-1.36,2-4.54,1.66-5.79-0.46c-0.42-0.72-0.85-0.92-1.61-0.9c-0.83,0.02-2.01,0.32-1.98-1.06c0.03-1.28,1.17-0.97,1.96-0.98
			c0.69-0.01,1.14-0.09,1.54-0.82c1.39-2.52,4.92-2.51,6.36-0.01c0.36,0.63,0.73,0.89,1.44,0.82c0.61-0.06,1.24-0.04,1.85-0.01
			c1.17,0.07,2.03-0.05,2.83-1.28c1.4-2.17,4.71-1.81,5.99,0.5c0.34,0.61,0.68,0.91,1.33,0.76c0.77-0.18,0.35-0.82,0.39-1.25
			c0.07-0.73,0.03-1.47,0.02-2.2c-0.02-1.55-0.88-2.42-2.39-2.42c-1.7,0-3.4,0.01-5.1,0c-1.26-0.01-1.54-0.31-1.55-1.6
			c-0.01-1.47-0.05-2.94,0.02-4.4c0.04-0.86-0.22-1.12-1.09-1.11C12.11,6.37,8.1,6.35,4.08,6.34c-0.38,0-0.77,0.08-1.12-0.17
			C2.56,5.89,2.44,5.5,2.55,5.06c0.17-0.65,0.7-0.77,1.27-0.77C6.18,4.28,8.53,4.29,10.89,4.28z M23.87,11.35
			c-0.52-1.04-0.94-1.94-1.41-2.81c-0.21-0.4-2.71-0.61-3.03-0.28c-0.07,0.07-0.12,0.2-0.12,0.31c-0.01,0.77,0,1.54-0.01,2.31
			c0,0.34,0.17,0.48,0.5,0.48C21.09,11.35,22.38,11.35,23.87,11.35z M22.93,20.38c0.03-0.86-0.71-1.62-1.59-1.64
			c-0.83-0.02-1.56,0.66-1.61,1.49c-0.06,0.87,0.65,1.66,1.52,1.71C22.1,21.98,22.89,21.24,22.93,20.38z M9.21,21.94
			c0.86,0.01,1.64-0.75,1.65-1.6c0-0.84-0.78-1.6-1.64-1.6c-0.84,0.01-1.52,0.69-1.55,1.54C7.63,21.17,8.34,21.92,9.21,21.94z"/>
		<path class="st0" d="M4.73,13.47c-1.16,0-2.32,0.01-3.47,0C0.57,13.46,0,13.21,0,12.43c0-0.77,0.54-1.05,1.24-1.06
			c2.35,0,4.71,0,7.06,0c0.7,0,1.24,0.25,1.25,1.04c0.01,0.8-0.53,1.05-1.23,1.05C7.13,13.47,5.93,13.47,4.73,13.47z"/>
		<path class="st0" d="M6.35,7.9c1.12,0,2.24,0.01,3.36,0c0.77-0.01,1.31,0.28,1.29,1.11c-0.02,0.8-0.61,0.98-1.3,0.98
			c-2.32-0.01-4.63-0.01-6.95,0c-0.71,0-1.28-0.25-1.3-1C1.42,8.17,2,7.89,2.76,7.89C3.96,7.91,5.16,7.9,6.35,7.9z"/>
		<path class="st0" d="M4.62,14.85c0.58,0,1.16,0,1.73,0c0.67,0,1.14,0.3,1.17,1c0.03,0.71-0.41,1.07-1.08,1.08
			c-1.31,0.02-2.62,0.03-3.93-0.01c-0.66-0.02-1.11-0.41-1.07-1.11c0.04-0.63,0.47-0.95,1.09-0.96C3.24,14.84,3.93,14.85,4.62,14.85
			z"/>
	</g>
</g>
</svg>
