<?xml version="1.0" encoding="utf-8"?>
<!-- Generator: Adobe Illustrator 26.3.1, SVG Export Plug-In . SVG Version: 6.00 Build 0)  -->
<svg version="1.1" id="Слой_1" xmlns="http://www.w3.org/2000/svg" xmlns:xlink="http://www.w3.org/1999/xlink" x="0px" y="0px"
	 viewBox="0 0 90 90" style="enable-background:new 0 0 90 90;" xml:space="preserve">
<style type="text/css">
	.st0{fill:#FFE522;}
</style>
<g>
	<path class="st0" d="M44.27,3c0.49,0,0.97,0,1.46,0c1.06,0.69,1.65,1.72,2.19,2.83c3.52,7.19,7.1,14.35,10.56,21.57
		c0.65,1.36,1.45,1.99,2.93,2.19c7.87,1.08,15.74,2.25,23.6,3.38c1.46,0.21,2.88,0.48,3.82,1.8c0,0.49,0,0.97,0,1.46
		c-0.62,1.05-1.43,1.95-2.31,2.8c-4.78,4.67-9.35,9.59-14.41,13.94c-3.2,2.75-3.81,5.46-2.92,9.42c1.48,6.56,2.39,13.26,3.51,19.9
		c0.28,1.69,0.49,3.4-1.04,4.71c-0.61,0-1.22,0-1.83,0c-7.89-4.17-15.79-8.33-23.67-12.53c-0.85-0.45-1.48-0.45-2.33,0
		c-7.87,4.2-15.77,8.36-23.67,12.53c-0.61,0-1.22,0-1.83,0c-1.18-1.01-1.44-2.26-1.18-3.77c1.43-8.26,2.77-16.54,4.25-24.79
		c0.23-1.29-0.12-2.01-0.97-2.83C14.81,50.16,9.21,44.66,3.59,39.18c-0.92-0.9-1.77-1.83-2.41-2.95c0-0.49,0-0.97,0-1.46
		c0.98-1.37,2.48-1.6,4-1.82c7.99-1.16,15.97-2.35,23.96-3.48c1.08-0.15,1.65-0.6,2.14-1.59c3.57-7.37,7.21-14.7,10.82-22.05
		C42.62,4.73,43.22,3.69,44.27,3z"/>
</g>
</svg>
