<?xml version="1.0" encoding="utf-8"?>
<!-- Generator: Adobe Illustrator 26.4.1, SVG Export Plug-In . SVG Version: 6.00 Build 0)  -->
<svg version="1.1" id="Слой_1" xmlns="http://www.w3.org/2000/svg" xmlns:xlink="http://www.w3.org/1999/xlink" x="0px" y="0px"
	 viewBox="0 0 181.91 66" style="enable-background:new 0 0 181.91 66;" xml:space="preserve">
<style type="text/css">
	.st0{fill:url(#SVGID_1_);}
	.st1{fill:url(#SVGID_00000005965448577542902940000013775597780279306908_);}
</style>
<g id="xUhQaQ_00000119831086247919606400000006073036694084597654_">
	<g>
		<linearGradient id="SVGID_1_" gradientUnits="userSpaceOnUse" x1="57.6405" y1="10.6312" x2="62.6682" y2="47.2609">
			<stop  offset="0" style="stop-color:#4732FE"/>
			<stop  offset="1" style="stop-color:#1DF207"/>
		</linearGradient>
		<path class="st0" d="M121.11,28.23c-2.34,4.98-4.34,10.12-7.26,14.83c-2.26,3.64-4.94,6.94-7.71,10.19
			c-3.35,3.94-7.84,5.32-12.76,5.77c-0.96,0.09-1.62-0.52-2.23-1.21c-5.1-5.74-10.67-11.06-15.35-17.18
			c-1.31-1.71-2.61-2.4-4.41-0.51c-0.65,0.68-1.49,1.51-2.66,1.32c-0.76-0.12-0.43,0.34-0.54,0.71C66.54,47.88,65.25,53.68,64,59.5
			c-0.36,1.67-0.9,2-2.76,1.95c-1.58-0.04-2.83-1.39-4.56-0.67c-0.9,0.37-0.78-0.75-0.62-1.38c2.14-8.48,3.79-17.09,6.52-25.42
			c1.55-4.73,3.22-9.43,4.71-14.18c0.64-2.06-0.9-3.71-1.66-5.41c-0.5-1.13-1.99-0.2-3.04-0.23c-1.29-0.04-1.65,0.77-2.02,1.86
			c-3.94,11.68-7.27,23.5-9.02,35.72c-0.43,2.98-2.48,3.92-5.44,2.75c-2.8-1.11-2.84-1.12-2.25-4.2c1.03-5.41,2.09-10.81,3.22-16.59
			c-2.19,0.8-3.55,2.36-5.15,3.47c-6.33,4.38-11.95,9.65-17.82,14.6C19,56.06,14,60.44,9.19,65.03c-1.52,1.45-2.66,1.13-4.14-0.08
			c-1.33-1.09-1.65-2.82-2.96-3.9c-0.72-0.59,0.25-0.98,0.58-1.33c3.67-3.96,7.84-7.4,11.89-10.95
			c7.45-6.51,14.91-13.03,22.83-18.99c0.41-0.31,0.81-0.63,1.35-1.05c-2.63-1.25-5.17-1.23-7.66-1.3c-4.8-0.13-9.53,0.38-14.19,1.61
			c-1.68,0.45-3.37,0.38-4.3-1.8c-0.45-1.06-2.6-1.83-2.54-2.61c0.23-2.67,1.73-4.98,3.65-6.85c6.64-6.48,14-12.02,22.13-16.51
			c4.07-2.26,5.72-1.64,7.75,2.84c1.12,2.46,0.93,2.91-1.6,3.82c-5.52,1.99-9.96,5.71-14.58,9.13c-0.59,0.44-1.16,0.91-2.3,1.81
			c2.65,0,4.79-0.1,6.92,0.02c3.94,0.24,7.91,0.35,11.5,2.37c2.37,1.34,4.5,2.84,5.34,6.33c1.28-4.15,2.35-7.64,3.42-11.12
			c0.3-0.99-0.09-1.33-1.09-1.2c-1.68,0.22-3.39,0.29-5.06,0.61c-0.98,0.18-1.45-0.24-1.61-0.98c-0.42-1.94-0.09-3.95-0.41-5.93
			c-0.1-0.64,1.15-0.66,1.8-0.75c3.36-0.48,6.73-0.96,10.12-1.28c4.34-0.41,8.7-0.66,13.05-1.02c1.07-0.09,1.66,0.11,1.51,1.39
			c-0.07,0.59,0.28,1.23,0.34,1.85c0.16,1.53,1.84,2.57,2.78,1.48c1.1-1.28,2.21-0.85,3.39-0.99c3.2-0.38,6.39-0.29,9.42,0.76
			c2.98,1.03,5.8,2.38,6.99,5.75c0.49,1.39,0.68,2.64,0.32,4.07c-1.15,4.6-4.56,7.39-8.01,10.15c-1.39,1.1-2.87,2.09-4.27,3.17
			c-0.4,0.31-1.26,0.57-0.6,1.33c2.24,2.59,4.52,5.16,6.98,7.96c2.21-8.95,6.14-16.73,11.18-23.96c0.92-1.32,1.22-2.92,2.37-4.09
			c3.23-3.29,7.33-3.33,11.45-2.96c7.68,0.69,9.64,7.19,8.61,13.87c-0.13,0.87-0.31,1.74-0.47,2.61L121.11,28.23z M95.46,46.79
			c0,0.44-0.03,0.89,0,1.33c0.19,2.51,0.67,2.79,2.74,1.5c1.78-1.11,3.23-2.58,4.52-4.21c4.38-5.54,7.66-11.71,10.28-18.24
			c0.53-1.31,0.78-2.68,0.79-4.1c0.03-3.22-2.13-4.54-5.13-3.15c-1.02,0.47-1.79,1.15-2.45,2.04c-3.38,4.5-5.98,9.44-8.07,14.64
			C96.83,39.88,95.5,43.17,95.46,46.79z M71.74,30c5.07-2.76,9.92-5.41,13.53-9.75c1.09-1.32,0.92-2.06-0.67-2.48
			c-2.44-0.63-4.94-0.8-7.45-0.76c-0.6,0.01-0.97,0.24-1.16,0.8C74.57,21.87,73.16,25.93,71.74,30z"/>
		
			<linearGradient id="SVGID_00000149382762233188297300000000901453004061455244_" gradientUnits="userSpaceOnUse" x1="141.9117" y1="-0.9355" x2="146.9393" y2="35.6943">
			<stop  offset="0" style="stop-color:#4732FE"/>
			<stop  offset="1" style="stop-color:#1DF207"/>
		</linearGradient>
		<path style="fill:url(#SVGID_00000149382762233188297300000000901453004061455244_);" d="M121.05,28.29
			c2.08-3.73,3.31-7.83,4.97-11.74c1.65-3.88,2.68-2.96,5.96-2.11c2.56,0.66,2.76,2.82,3.01,4.89c0.53,4.46,1.01,8.92,1.52,13.4
			c0.9,0.09,0.78-0.76,0.94-1.2c2.58-7.05,5.39-14.01,8.47-20.86c0.27-0.6,0.45-1.28,0.84-1.79c0.62-0.79,1.14-2.2,2.5-0.62
			c0.35,0.41,1.25,0.33,1.88,0.52c2.67,0.84,3.12,1.87,2.01,4.46c-2.36,5.51-4.7,11.04-6.82,16.69c2-2.48,3.92-5.04,6.02-7.42
			c3.58-4.06,7.43-7.85,12.38-10.25c4.21-2.04,5.7-1.8,8.64,0.92c0.78,0.72,1.28,1.57,0.96,2.51c-0.6,1.79,0.8,1.7,1.53,1.45
			c0.81-0.27,1.44,0.05,2.11,0.1c1.44,0.09,2.51,0.65,2.43,2.49c-0.21,4.72-1.82,9.09-3.24,13.49c-2.46,7.63-4.94,15.26-9.13,22.19
			c-4.24,7.02-10.63,10.16-18.64,10.3c-1.38,0.02-2.77-0.32-4.14-0.57c-2.25-0.41-1.73-2.52-2.16-3.92
			c-0.28-0.91,0.28-2.08,0.45-3.13c0.11-0.66,0.51-1.22,1.13-1.16c2.02,0.18,4.14-0.65,6.07,0.54c0.78,0.48,1.6,0.23,2.36,0
			c2.45-0.72,4.71-1.84,6.4-3.79c3.46-3.96,5.25-8.78,6.92-13.73c-4.04,2.95-8.39,5.17-12.99,6.94c-2.21,0.85-4.52,1.19-6.7,0.6
			c-2.25-0.61-3.62-2.54-4.68-4.69c-1.98,3.78-2.14,8.32-3.97,12.28c-1.36-0.53-2.39-2.08-3.95-0.62c-0.43,0.4-3.17-1.23-3.02-1.77
			c1.03-3.68-1.04-6.98-1.23-10.52c-0.19-3.59-0.9-7.15-1.42-10.99c-1.87,4.95-3.4,9.8-4.61,14.76c-0.96,3.91-1.46,7.88-1.88,11.87
			c-0.12,1.18-0.39,1.54-1.81,1.17c-1.34-0.35-2.9-0.39-4.3-0.38c-2.04,0.02-1.72-0.95-1.6-2.21c0.7-7.52,2.54-14.78,4.9-21.94
			c0.68-2.07,1.74-4.04,1.92-6.26C121.11,28.23,121.05,28.29,121.05,28.29z M150.4,39.53c6.55-2.11,11.61-5.81,15.82-10.7
			c1.72-2,3.42-4.02,4.01-6.74c0.26-1.2-0.61-1.98-0.92-2.94c-0.14-0.44-1.42,0.28-2.1,0.66c-3.99,2.24-7,5.6-9.99,8.95
			C154.44,31.89,152.07,35.32,150.4,39.53z"/>
	</g>
</g>
</svg>
