<?xml version="1.0" encoding="utf-8"?>
<!-- Generator: Adobe Illustrator 26.4.1, SVG Export Plug-In . SVG Version: 6.00 Build 0)  -->
<svg version="1.1" id="Слой_1" xmlns="http://www.w3.org/2000/svg" xmlns:xlink="http://www.w3.org/1999/xlink" x="0px" y="0px"
	 viewBox="0 0 252.26 66" style="enable-background:new 0 0 252.26 66;" xml:space="preserve">
<style type="text/css">
	.st0{fill:url(#SVGID_1_);}
	.st1{fill:url(#SVGID_00000066487162136949563830000007512265718473339321_);}
	.st2{fill:url(#SVGID_00000060025861840891741310000008136137423663815846_);}
	.st3{fill:url(#SVGID_00000038413262935902874280000005438290298762635152_);}
	.st4{fill:url(#SVGID_00000016034744300067763580000003475050231893413815_);}
</style>
<g id="UvzARc_00000123400616126381732900000013028985725400787868_">
	<g>
		<linearGradient id="SVGID_1_" gradientUnits="userSpaceOnUse" x1="141.6935" y1="14.9556" x2="138.4663" y2="75.4654">
			<stop  offset="0" style="stop-color:#F0054C"/>
			<stop  offset="1" style="stop-color:#FE1731"/>
		</linearGradient>
		<path class="st0" d="M108.98,28.91c5.45,1.62,11.17,2.55,13.4,9.22c0.48-1.9,0.82-3.39,1.22-4.86c1.19-4.32,2.85-8.47,4.58-12.6
			c1.16-2.78,3.05-4.22,5.81-5.39c6.9-2.92,11.82,3.51,11.07,9.15c-0.73,5.46-3.83,9.34-7.96,12.59c-2.04,1.6-4.2,3.06-6.36,4.49
			c-1.04,0.69-1.28,1.53-1.13,2.68c0.16,1.22,0.58,1.73,1.92,1.29c1.55-0.51,2.99-1.22,4.35-2.08c1.79-1.12,3.44-2.43,4.98-3.87
			c3.32-3.09,5-3.17,8.66-0.32c1.58-6.04,3.26-12,5.26-17.84c2.14-6.23,4.46-12.38,7.73-18.12c0.55-0.96,1.03-3.4,2.8-0.82
			c0.18,0.26,0.49,0.24,0.76,0.11c1.71-0.83,2,1.44,3.44,1.63c0.66,0.09-0.02,1.9-0.52,2.78c-6.42,11.23-9.33,23.75-13.08,35.94
			c-1.29,4.18-2.39,8.46-3.48,12.88c1.92-0.21,3.88-0.64,5.49-1.56c1.13-0.65,1.52-2.33,1.95-3.71c3.11-9.86,5.37-19.96,8.79-29.73
			c2.13-6.08,4.36-12.11,7.62-17.69c0.51-0.87,1.04-3.44,2.6-0.6c0.25,0.46,0.58,0.13,0.89,0.02c0.89-0.29,1.63-0.22,1.87,0.89
			c0.03,0.13,0.09,0.28,0.18,0.38c1.58,1.57,1.71,1.64,0.54,3.75c-5.69,10.26-8.66,21.49-11.9,32.63
			c-1.49,5.11-2.89,10.25-4.45,15.77c1.99-0.55,3.67-0.89,5.25-1.49c1.21-0.45,1.98-0.2,2.25,0.98c0.26,1.11,2.04,1.8,0.94,3.29
			c-0.06,0.08-0.05,0.26,0,0.35c0.97,1.73,0.99,1.79-1.11,2.38c-3.84,1.07-7.52,2.63-11.42,3.49c-1.34,0.3-2.08-0.15-2.46-1.22
			c-0.54-1.57-1.42-1.77-2.9-1.26c-2.44,0.85-4.91,1.67-7.42,2.23c-2.52,0.56-3.6-0.79-4.55-3.25c-1.4-3.64,0.08-6.6,1.23-9.79
			c1.01-2.8,1.73-5.7,2.64-8.78c-4.13,3.67-8.16,7.16-13.1,9.33c-2.34,1.03-4.74,1.47-7.33,0.81c-3.71-0.94-4.95-3.75-5.72-7.01
			c-0.09-0.39-0.07-0.8-0.14-1.67c-4.41,7.05-11.3,10.13-18.1,13.32c-2.24,1.05-2.2,0.97-2.6-1.47c-0.11-0.66-0.78-1.24-1.22-1.83
			c-1.27-1.73-1.16-2.38,0.74-3.34c3.25-1.65,6.58-3.16,9.61-5.22c1.4-0.96,2.68-2.05,3.68-3.43c1.34-1.84,1.09-3.02-0.92-4.09
			c-2.12-1.13-4.48-1.6-6.78-2.24c-1.01-0.28-2.03-0.54-3-0.93c-3.61-1.46-4.7-5.24-2.56-8.5c1.74-2.64,4.28-4.39,6.7-6.29
			c2.71-2.12,5.49-4.15,8.47-5.87c2.97-1.72,5.65-0.63,6.12,2.79c0.18,1.31-0.99,2.44-2.35,3.2
			C115.99,22.63,112.57,25.62,108.98,28.91z M131.93,31.65c2.56-1.92,4.22-3.87,5.27-6.31c0.4-0.94,0.58-1.9,0.22-2.85
			c-0.13-0.34-0.52-0.68-0.87-0.83c-0.53-0.23-0.7,0.28-0.89,0.64C134.2,25.16,132.93,28.09,131.93,31.65z"/>
		
			<linearGradient id="SVGID_00000049902216332487398170000004133702635094631359_" gradientUnits="userSpaceOnUse" x1="213.3791" y1="18.7789" x2="210.1519" y2="79.2886">
			<stop  offset="0" style="stop-color:#F0054C"/>
			<stop  offset="1" style="stop-color:#FE1731"/>
		</linearGradient>
		<path style="fill:url(#SVGID_00000049902216332487398170000004133702635094631359_);" d="M230.79,24.09
			c3.45-2.65,6.47-5.26,9.81-7.43c1.18-0.76,2.34-1.54,3.55-2.26c2.92-1.73,5.63-0.6,6.09,2.81c0.18,1.31-0.99,2.43-2.31,3.17
			c-4,2.22-7.41,5.21-11.02,8.49c2.06,0.64,3.87,1.29,5.73,1.75c3.08,0.77,5.34,2.86,6.85,5.3c1.56,2.51,1.73,7.17-0.7,10.3
			c-2.92,3.76-6.74,6.25-10.82,8.51c-1.83,1.02-4.02,1.5-5.27,3.61c-0.22,0.37-1.38,1.7-2.55,1.63c-1.35-0.08-1.94-1.27-2.73-2.14
			c-4.8-5.26-9.93-10.21-14.22-15.93c-0.81-1.08-1.87-1.6-3.12-0.36c-0.84,0.83-1.77,1.62-3,1.82c-1.03,0.17-0.82,1.07-0.96,1.65
			c-1.24,5.01-2.43,10.03-3.57,15.06c-0.38,1.67-0.85,2.39-2.97,2.21c-1.35-0.12-2.45-1.23-4.02-0.67c-1.11,0.4-0.74-0.9-0.61-1.46
			c1.13-4.89,2.31-9.76,3.47-14.64c0.06-0.26,0.12-0.52,0.21-0.91c-1.01-0.09-1.43,0.64-1.97,1.09c-2.86,2.39-5.81,4.62-9.2,6.24
			c-3.36,1.61-6.84,2.08-10.07,0.12c-2.37-1.43-3.39-4.02-3.6-6.79c-0.55-7.48,1.77-14.36,4.46-21.16c0.46-1.17,1.12-2.27,1.49-3.47
			c0.95-3.05,3.24-4.34,6.05-5.47c6.13-2.45,11,2.81,10.83,8.11c-0.19,5.98-3.53,10.15-7.91,13.68c-2.02,1.62-4.22,3.03-6.35,4.51
			c-0.72,0.5-1.29,1-1.28,2c0.01,2.1,0.52,2.55,2.49,1.84c3.3-1.18,6.18-3.11,8.55-5.61c2.05-2.16,4-3.52,6.9-1.72
			c1.18,0.73,1.48,0.02,1.8-0.97c1.44-4.47,2.89-8.93,4.45-13.36c0.45-1.27,0.5-2.37-0.16-3.52c-0.07-0.12-0.15-0.24-0.2-0.37
			c-1.51-4.09-1.75-4.17,2.66-4.96c1.95-0.35,3.85-1.28,5.65-1.64c3.11-0.62,6.52-0.61,9.75,0.36c3.37,1.01,6.29,2.45,7.66,6
			C231.16,20.91,230.81,22.26,230.79,24.09z M227.67,28.83c-2.88,2.6-5.69,5.01-8.8,7.06c-0.79,0.52-0.56,0.89-0.04,1.46
			c3.56,3.97,7.09,7.97,10.63,11.96c0.42,0.48,0.84,0.99,1.6,0.61c3.82-1.93,7.76-3.7,10.67-6.99c2.04-2.31,1.72-3.75-1.09-4.99
			c-2.38-1.06-4.95-1.54-7.44-2.28c-1.84-0.55-3.94-0.86-4.65-3.09C228.18,31.4,227.99,30.21,227.67,28.83z M209.54,33.08
			c5-3.21,9.63-5.82,13.12-9.94c1.06-1.26,0.76-1.98-0.7-2.36c-2.25-0.59-4.55-0.73-6.87-0.71c-0.61,0.01-1.02,0.12-1.26,0.8
			C212.49,24.76,211.1,28.64,209.54,33.08z M183.41,31.67c2.59-1.93,4.28-3.9,5.33-6.4c0.39-0.93,0.56-1.89,0.17-2.83
			c-0.14-0.34-0.54-0.67-0.9-0.79c-0.52-0.18-0.67,0.33-0.86,0.69C185.7,25.17,184.47,28.09,183.41,31.67z"/>
		
			<linearGradient id="SVGID_00000175306395786150727580000005096321164590715285_" gradientUnits="userSpaceOnUse" x1="33.7549" y1="9.1989" x2="30.5277" y2="69.7087">
			<stop  offset="0" style="stop-color:#F0054C"/>
			<stop  offset="1" style="stop-color:#FE1731"/>
		</linearGradient>
		<path style="fill:url(#SVGID_00000175306395786150727580000005096321164590715285_);" d="M26.88,26.18
			c3.93,0.08,7.01,1.64,9.93,3.9c1.26-3.35,2.58-6.49,3.81-9.64c1.09-2.8,3.15-4.05,5.69-5.16c2.87-1.25,5.48-1.02,7.84,0.82
			c3.17,2.46,3.73,5.91,3.01,9.63c-0.97,5.04-4.18,8.59-8.11,11.59c-1.9,1.44-3.84,2.85-5.87,4.09c-1.51,0.92-1.3,2.18-1.05,3.49
			c0.2,1.05,0.98,0.75,1.67,0.56c2.86-0.77,5.17-2.48,7.44-4.26c0.72-0.56,1.4-1.18,2.05-1.81c1.63-1.58,3-3.05,5.82-1.76
			c2.3,1.06,3.26,2.7,1.69,4.9c-1.29,1.8-3.1,3.02-4.79,4.35c-3.41,2.69-6.89,5.28-11.31,6.2c-4.91,1.01-8.55-1.28-9.83-6.09
			c-0.09-0.33-0.21-0.66-0.41-1.25c-2.62,2.4-5.02,4.78-7.71,6.84c-6.08,4.64-12.28,9.1-18.71,13.26c-2.37,1.54-4.21,0.54-4.56-2.38
			c-0.06-0.48,0.13-1.05-0.29-1.38c-2.15-1.72-1.7-3.85-1.1-6.08c3.63-13.6,7.06-27.26,12.26-40.38c0.58-1.47,0.1-1.59-1.12-1.31
			c-0.14,0.03-0.27,0.09-0.41,0.1c-1.48,0.12-3.4,1.94-4.31-0.43c-1-2.61,0.68-6.9,2.69-7.45c5.5-1.48,11.09-2.59,16.83-1.66
			c4.09,0.67,8.22,5.02,8.18,8.38c-0.01,0.71-0.19,1.35-0.4,2.03c-1.28,4.1-3.79,7.2-7.45,9.43c-0.36,0.22-0.69,0.48-1.01,0.75
			C27.26,25.53,27.2,25.67,26.88,26.18z M10.73,54.34c2.44-1.72,4.59-3.16,6.65-4.72c4.13-3.13,8.42-6.08,11.82-10.05
			c2.33-2.72,2.07-3.59-1.29-4.53c-3.67-1.02-7.39-0.37-11.09-0.2c-0.9,0.04-1.01,0.79-1.21,1.48c-0.81,2.87-1.69,5.73-2.47,8.61
			C12.32,47.92,11.6,50.94,10.73,54.34z M20.99,20.15c2.63-1.94,4.83-3.53,6.98-5.18c0.41-0.31,1.27-0.87,0.07-1.31
			c-1.6-0.58-3.32-0.7-4.96-0.38c-1.35,0.27-0.38,1.63-0.7,2.43c-0.1,0.26-0.14,0.56-0.3,0.77C21.38,17.41,21.27,18.5,20.99,20.15z
			 M44.26,31.71c2.32-1.88,3.91-3.53,4.96-5.64c0.47-0.94,0.9-1.91,0.78-3c-0.08-0.67-0.39-1.25-1.08-1.41
			c-0.77-0.18-0.87,0.56-1.1,1.02C46.47,25.42,45.22,28.2,44.26,31.71z"/>
		
			<linearGradient id="SVGID_00000025430102515994055260000009156655562196683950_" gradientUnits="userSpaceOnUse" x1="72.1101" y1="11.2445" x2="68.8829" y2="71.7543">
			<stop  offset="0" style="stop-color:#F0054C"/>
			<stop  offset="1" style="stop-color:#FE1731"/>
		</linearGradient>
		<path style="fill:url(#SVGID_00000025430102515994055260000009156655562196683950_);" d="M68.56,28.88
			c1.92,0.6,3.63,0.99,5.22,1.66c2.26,0.94,4.99,1.16,5.98,4.18c0.19,0.56,1.48,1.03,1.85,2.18c2.24,6.99-1.83,11.12-6.78,14.66
			c-3.47,2.48-7.3,4.44-11.25,6.1c-2.17,0.91-2.09,0.89-2.47-1.55c-0.1-0.65-0.88-1.19-1.31-1.8c-1.28-1.79-1.17-2.35,0.78-3.34
			c3.25-1.65,6.59-3.13,9.6-5.22c1.46-1.01,2.79-2.14,3.8-3.59c1.15-1.66,0.91-2.82-0.87-3.81c-2.16-1.2-4.6-1.67-6.95-2.34
			c-1.07-0.3-2.14-0.61-3.17-1.01c-3.39-1.34-4.6-5.13-2.58-8.14c1.13-1.68,2.53-3.13,4.13-4.4c3.85-3.05,7.66-6.17,12.04-8.42
			c1.27-0.65,2.89-0.85,4.12,0.69c1.67,2.09,1.28,4.31-1.06,5.62C75.59,22.6,72.15,25.63,68.56,28.88z"/>
		
			<linearGradient id="SVGID_00000096021184641401891420000010493669279780253866_" gradientUnits="userSpaceOnUse" x1="97.7651" y1="12.6128" x2="94.5379" y2="73.1225">
			<stop  offset="0" style="stop-color:#F0054C"/>
			<stop  offset="1" style="stop-color:#FE1731"/>
		</linearGradient>
		<path style="fill:url(#SVGID_00000096021184641401891420000010493669279780253866_);" d="M84.67,12.12
			c5.81-1.26,11.56-1.61,17.28-2.14c2.24-0.21,4.48-0.32,6.72-0.44c0.72-0.04,1.33-0.31,1.18,1.09c-0.15,1.43,0.32,3.09,0.71,4.44
			c0.54,1.87-0.51,1.54-1.33,1.64c-2.29,0.28-4.6,0.49-6.91,0.64c-1.08,0.07-1.52,0.56-1.82,1.56c-2.07,6.81-4.53,13.52-6.1,20.48
			c-1.09,4.81-1.76,9.72-2.68,14.57c-0.41,2.16-1.27,2.6-3.45,1.71c-0.64-0.26-1.76-0.38-1.9-0.35c-3.87,0.64-2.11-2.08-1.9-3.35
			c1.81-10.67,4.34-21.17,7.81-31.44c0.76-2.26,0.64-2.35-1.74-1.97c-0.28,0.04-0.55,0.12-0.83,0.15c-4.53,0.65-5.12,0.04-4.68-4.62
			C85.09,13.5,84.82,12.88,84.67,12.12z"/>
	</g>
</g>
</svg>
