<?xml version="1.0" encoding="utf-8"?>
<!-- Generator: Adobe Illustrator 26.4.1, SVG Export Plug-In . SVG Version: 6.00 Build 0)  -->
<svg version="1.1" id="Слой_1" xmlns="http://www.w3.org/2000/svg" xmlns:xlink="http://www.w3.org/1999/xlink" x="0px" y="0px"
	 viewBox="0 0 199.57 66" style="enable-background:new 0 0 199.57 66;" xml:space="preserve">
<style type="text/css">
	.st0{fill:url(#SVGID_1_);}
	.st1{fill:url(#SVGID_00000029044896332811667260000001244784048148119473_);}
	.st2{fill:url(#SVGID_00000029029889740159129620000002658131877339690935_);}
	.st3{fill:url(#SVGID_00000052093818137372931800000002096995644734049208_);}
	.st4{fill:url(#SVGID_00000083089685495172847720000006643418492815784366_);}
	.st5{fill:url(#SVGID_00000098899364597961996880000012918656204161043635_);}
	.st6{fill:url(#SVGID_00000118390696777749179580000006141407407185610636_);}
	.st7{fill:url(#SVGID_00000156552923357839394710000008455600945808648850_);}
	.st8{fill:url(#SVGID_00000029755555917436781370000015175060529381769906_);}
</style>
<g id="limqqY_00000088847277030650773720000015556808648669248696_">
	<g>
		<linearGradient id="SVGID_1_" gradientUnits="userSpaceOnUse" x1="138.4277" y1="61.9906" x2="134.2985" y2="13.8166">
			<stop  offset="0" style="stop-color:#FFDFBE"/>
			<stop  offset="1" style="stop-color:#FFC99C"/>
		</linearGradient>
		<path class="st0" d="M133.11,48.37c-0.61,2.09-1.2,4.18-1.84,6.26c-0.21,0.69-0.24,1.65-1.43,0.56c-0.55-0.5-1.72-1.05-2.75-0.07
			c-0.49,0.47-3.03-1.07-2.87-1.71c0.93-3.65-1.12-6.9-1.31-10.41c-0.18-3.23-0.81-6.44-1.33-10.29c-1.15,3.45-2.23,6.34-3.09,9.29
			c-1.54,5.33-2.7,10.74-3.1,16.29c-0.09,1.26-0.44,1.47-1.73,1.19c-1.37-0.3-2.87-0.41-4.24-0.35c-1.67,0.06-1.5-0.66-1.42-1.72
			c0.64-9.04,3.29-17.59,6.3-26.05c1.63-4.59,3.4-9.12,5.43-13.56c0.7-1.53,1.65-2.07,3.28-1.55c4.34,1.38,4.12,1.07,4.77,5.16
			c0.62,3.9,1.13,7.83,1.23,11.8c0.01,0.42-0.05,0.86,0.55,1.17c1.11-1.81,1.62-3.85,2.35-5.79c2.08-5.47,4.36-10.87,6.75-16.21
			c0.29-0.65,0.57-1.3,1.13-1.77c0.46-0.39,0.81-1.03,1.38-0.01c0.36,0.63,1.25,0.52,1.93,0.7c2.85,0.76,3.24,1.76,2.08,4.46
			c-2.14,4.98-4.32,9.96-6.24,15.03c-1.82,4.8-3.56,9.65-4.91,14.63c2.06,0.05,2.12,0.06,2.93-1.85
			c3.62-8.52,7.57-16.88,12.05-24.99c0.99-1.79,2.26-3.42,3.28-5.19c0.72-1.25,1.6-1.36,2.8-0.84c1.01,0.43,2,0.7,2.28-0.89
			c0.16-0.92,0.5-0.51,1.19-0.36c1.34,0.28,2.79,0.22,4.19,0.27c1.42,0.05,1.66,0.69,1.64,1.84c-0.04,2.86-0.81,5.59-1.5,8.32
			c-1.95,7.73-3.54,15.55-4.75,23.4c-0.55,3.57-1.4,7.07-1.93,10.64c-0.33,2.21-1.16,2.51-3.29,1.71c-0.38-0.14-0.59-0.6-1.17,0.13
			c-0.82,1.05-1.85-0.7-3-0.35c-0.24,0.08-0.13-1.07,0-1.53c0.42-1.48,0.03-3.1,0.92-4.53c0.55-0.87-0.21-1.16-0.92-0.89
			c-2.61,1-5.47,1.01-8.02,2.5c-1.55,0.91-3.76,0.8-5.69,0.92c-0.76,0.05-0.9-0.86-0.96-1.61c-0.11-1.27-0.33-2.53-0.51-3.8
			C133.42,48.34,133.27,48.35,133.11,48.37z M145.04,43c1.82-0.35,3.26-0.65,4.7-0.88c1.2-0.18,1.71-0.7,1.93-2.02
			c0.68-4.17,1.58-8.31,2.44-12.45c0.3-1.46,0.92-2.87,0.6-4.48C151.13,29.5,147.99,36.04,145.04,43z"/>
		
			<linearGradient id="SVGID_00000113354130358556452560000007205150453879626123_" gradientUnits="userSpaceOnUse" x1="54.3615" y1="69.1962" x2="50.2323" y2="21.0222">
			<stop  offset="0" style="stop-color:#FFDFBE"/>
			<stop  offset="1" style="stop-color:#FFC99C"/>
		</linearGradient>
		<path style="fill:url(#SVGID_00000113354130358556452560000007205150453879626123_);" d="M59.23,44.55c2-7.2,4.21-13.88,6.7-20.46
			c0.7-1.85,1.39-3.71,2.23-5.49c1.29-2.71,1.84-2.85,4.12-1.09c0.28,0.22,0.56,0.56,0.91,0.73c2.94,1.36,2.94,1.35,1.55,4.29
			c-4.07,8.6-6.64,17.7-9.04,26.86c-0.33,1.25-0.01,2.12,0.92,3c2.28,2.15,1.24,3.69-1.05,5.89c-2.93,2.82-3.45,0.01-4.69-1.16
			c-5.05-4.76-9.49-10.1-13.91-15.43c-1.27-1.53-2.14-1.37-3.97-0.46c-3.16,1.58-3.83,4.17-4.46,7.09c-0.86,4-1.88,7.96-2.75,11.95
			c-0.33,1.52-0.96,1.66-2.53,1.61c-1.54-0.05-2.81-1.34-4.48-0.65c-0.71,0.3-0.75-0.61-0.61-1.18c2.65-10.59,4.81-21.3,8.64-31.58
			c0.81-2.16,1.41-4.42,2.23-6.6c0.22-0.59,0.28-1.07-0.15-1.72c-0.57-0.87-0.86-1.92-1.17-2.93c-0.65-2.14-0.19-2.89,1.98-3.23
			c2.26-0.35,4.72,0,6.55-1.86c4.72,0.13,9.57-0.86,13.92,2.07c1.41,0.95,2.78,1.72,3.65,3.33c1.98,3.65-0.09,7.93-2.59,10.54
			c-2.44,2.56-5.24,4.77-8.21,6.71c-1.18,0.77-1.3,1.3-0.27,2.39C54.91,39.42,56.87,41.83,59.23,44.55z M43.28,32.17
			c0.98-0.6,1.59-0.95,2.17-1.33c3.93-2.51,7.91-4.95,10.92-8.63c1.05-1.28,0.55-1.89-0.73-2.23c-2.34-0.62-4.74-0.77-7.15-0.74
			c-0.7,0.01-1.01,0.36-1.2,0.95C46.01,24.03,44.41,27.77,43.28,32.17z"/>
		
			<linearGradient id="SVGID_00000081646320074352460520000018350633800846390414_" gradientUnits="userSpaceOnUse" x1="21.1638" y1="72.0418" x2="17.0346" y2="23.8678">
			<stop  offset="0" style="stop-color:#FFDFBE"/>
			<stop  offset="1" style="stop-color:#FFC99C"/>
		</linearGradient>
		<path style="fill:url(#SVGID_00000081646320074352460520000018350633800846390414_);" d="M34.88,20.77
			c-0.99,14.14-5.01,27.16-14.65,37.96c-1.91,2.13-4.04,4.06-6.72,5.4c-5.59,2.8-9.93-0.81-11.38-5.89
			c-1.93-6.75-0.5-13.33,1.39-19.78c2.89-9.87,6.99-19.23,12.78-27.79c1.58-2.34,3.32-4.57,5.7-6.22c0.88-0.61,1.51-0.7,2.35,0.17
			c0.98,1.01,2.39,1.43,3.68,2c5.2,2.34,6.19,7.11,6.85,12.03C34.96,19.35,34.88,20.07,34.88,20.77z M9.34,51.84
			c0.12,0.89,0.28,2.01,0.41,3.13c0.15,1.36,0.71,1.28,1.65,0.59c1.61-1.18,3.01-2.57,4.28-4.11c5.72-6.98,8.75-15.12,10.26-23.89
			c0.58-3.35,1.12-6.71,0.43-10.12c-0.16-0.8-0.42-2.25-1.16-1.9c-1.27,0.6-2.94,0.25-3.89,1.91c-2.36,4.12-4.44,8.37-6.3,12.72
			C12.1,37.03,9.92,44.1,9.34,51.84z"/>
		
			<linearGradient id="SVGID_00000012464346963458423310000011394078672417537183_" gradientUnits="userSpaceOnUse" x1="89.5091" y1="66.1836" x2="85.3799" y2="18.0096">
			<stop  offset="0" style="stop-color:#FFDFBE"/>
			<stop  offset="1" style="stop-color:#FFC99C"/>
		</linearGradient>
		<path style="fill:url(#SVGID_00000012464346963458423310000011394078672417537183_);" d="M91.82,41.29
			c-3.75,2.77-7.85,4.79-12.14,6.53c-1.99,0.81-3.99,0.97-6.01,0.81c-2.91-0.22-5.38-3.64-5.04-6.8c0.25-2.26,0.82-4.45,1.94-6.45
			c4.11-7.32,9.47-13.56,16.19-18.63c1.82-1.37,3.85-2.36,6.05-3.01c3.43-1.01,6.48,1.2,6.47,4.82c-0.01,1.15,1.03,0.91,1.27,0.88
			c0.78-0.1,1.5-0.01,2.27,0.03c1.61,0.09,2.55,0.58,2.46,2.4c-0.24,4.94-1.98,9.51-3.48,14.12c-2.29,7.04-4.62,14.08-8.59,20.42
			c-4.12,6.59-10.27,9.44-17.87,9.52c-1.19,0.01-2.38-0.23-3.56-0.46c-2.21-0.42-1.9-2.4-2.26-3.91c-0.06-0.24,0.06-0.63,0.08-0.96
			c0.24-3.01,0.91-3.71,3.85-3.08c4.07,0.87,7.76,0.66,10.98-2.28c1.71-1.56,2.91-3.47,3.97-5.47
			C89.81,47.11,91.06,44.35,91.82,41.29z M76.49,40.84c6.51-2.1,11.48-5.83,15.59-10.74c1.44-1.72,2.84-3.47,3.39-5.79
			c0.29-1.21-0.32-2.16-0.73-2.96c-0.31-0.62-1.49,0.25-2.21,0.63c-3.48,1.9-6.1,4.82-8.74,7.66
			C80.81,32.87,78.28,36.44,76.49,40.84z"/>
		
			<linearGradient id="SVGID_00000046338292981504530380000018053930174339957438_" gradientUnits="userSpaceOnUse" x1="173.0618" y1="59.0219" x2="168.9326" y2="10.8479">
			<stop  offset="0" style="stop-color:#FFDFBE"/>
			<stop  offset="1" style="stop-color:#FFC99C"/>
		</linearGradient>
		<path style="fill:url(#SVGID_00000046338292981504530380000018053930174339957438_);" d="M166.09,55.44
			c1.75-0.5,3.23-0.91,4.7-1.33c2.01-0.57,4.21,1.31,3.95,3.43c-0.05,0.4-0.4,0.82,0.05,1.11c2.14,1.35,0.56,1.76-0.57,2.12
			c-3.76,1.22-7.5,2.5-11.33,3.48c-2.52,0.64-3.61-0.81-4.62-3.23c-1.64-3.93,0.37-7.07,1.38-10.5c2-6.78,3.93-13.57,5.91-20.35
			c2.77-9.49,5.86-18.86,10.6-27.6c0.34-0.62,0.72-1.22,1.12-1.79c0.15-0.22,0.42-0.35,0.64-0.53c0.78,1.66,2.85,0.66,3.7,1.66
			c0.52,0.61,0.66,0.83,1.52,0.95c0.77,0.11,0.5,1.38,0.18,2.19c-0.92,2.36-2.33,4.48-3.4,6.77c-3.59,7.7-5.91,15.86-8.29,23.98
			C169.76,42.2,168,48.66,166.09,55.44z"/>
		
			<linearGradient id="SVGID_00000065762178835062573190000000421536630609603486_" gradientUnits="userSpaceOnUse" x1="187.58" y1="57.7775" x2="183.4508" y2="9.6035">
			<stop  offset="0" style="stop-color:#FFDFBE"/>
			<stop  offset="1" style="stop-color:#FFC99C"/>
		</linearGradient>
		<path style="fill:url(#SVGID_00000065762178835062573190000000421536630609603486_);" d="M183.77,28.14
			c2.1,0.65,4.04,1.1,5.84,1.86c2.08,0.88,3.96,1.64,5.43,3.96c3.32,5.26,3.61,8.16-0.4,12.91c-4.49,5.32-10.75,7.89-16.85,10.71
			c-1.15,0.53-1.98-0.4-1.79-0.98c0.47-1.41-0.5-1.96-1.08-2.78c-1.28-1.83-1.18-2.39,0.78-3.38c3.28-1.66,6.64-3.16,9.68-5.27
			c1.35-0.94,2.59-1.98,3.59-3.28c1.51-1.97,1.24-3.26-1.01-4.4c-2.09-1.06-4.4-1.53-6.64-2.16c-1.01-0.28-2.03-0.55-3.01-0.93
			c-3.68-1.42-4.82-5.32-2.58-8.6c1.66-2.43,3.94-4.19,6.23-5.95c2.92-2.24,5.85-4.46,9.04-6.31c3.1-1.79,4.86-1.11,5.94,2.43
			c0.55,1.82-0.82,2.77-2.14,3.56C190.85,21.91,187.36,24.86,183.77,28.14z"/>
		
			<linearGradient id="SVGID_00000072271176723947858900000013255893804135477177_" gradientUnits="userSpaceOnUse" x1="109.3868" y1="64.4798" x2="105.2577" y2="16.3058">
			<stop  offset="0" style="stop-color:#FFDFBE"/>
			<stop  offset="1" style="stop-color:#FFC99C"/>
		</linearGradient>
		<path style="fill:url(#SVGID_00000072271176723947858900000013255893804135477177_);" d="M97.92,53.31
			c0.56-3.79,1.47-7.49,2.51-11.15c2.05-7.26,4.55-14.38,7.28-21.41c0.23-0.59,0.49-1.17,0.77-1.74c1.53-3.1,1.53-3.1,4.43-1.16
			c0.22,0.15,0.5,0.23,0.74,0.34c2.9,1.36,2.86,1.34,1.6,4.21c-4.37,9.98-7.82,20.26-9.7,31.02c-0.32,1.82-1.02,2.17-2.8,1.59
			c-1.03-0.33-2.18-0.69-3.22-0.35C98.07,55.13,98.04,54.25,97.92,53.31z"/>
		
			<linearGradient id="SVGID_00000160149353390708174450000011301128223195770506_" gradientUnits="userSpaceOnUse" x1="82.3021" y1="66.8013" x2="78.1729" y2="18.6273">
			<stop  offset="0" style="stop-color:#FFDFBE"/>
			<stop  offset="1" style="stop-color:#FFC99C"/>
		</linearGradient>
		<path style="fill:url(#SVGID_00000160149353390708174450000011301128223195770506_);" d="M76.87,14.99
			c-0.99-0.61-2.2-0.5-3.27-0.82c-1.94-0.59-2.41-1.79-1.68-3.72c1.2-3.17,2.72-6.18,4.41-9.12c0.54-0.94,0.82-1.37,2.11-0.39
			c1.11,0.84,2.72,1.15,3.88,2.22c0.69,0.64,0.86,1.05,0.4,1.94c-1.49,2.88-2.88,5.82-4.27,8.75
			C78.11,14.53,77.89,15.23,76.87,14.99z"/>
		
			<linearGradient id="SVGID_00000150811609036801720640000010645231772889526174_" gradientUnits="userSpaceOnUse" x1="122.4579" y1="63.3594" x2="118.3287" y2="15.1854">
			<stop  offset="0" style="stop-color:#FFDFBE"/>
			<stop  offset="1" style="stop-color:#FFC99C"/>
		</linearGradient>
		<path style="fill:url(#SVGID_00000150811609036801720640000010645231772889526174_);" d="M117.08,15.01
			c-0.95-0.88-2.39-0.49-3.46-1.11c-1.27-0.73-2.05-1.63-1.27-3.4c1.41-3.17,2.92-6.27,4.56-9.32c0.58-1.08,0.91-0.96,1.93-0.25
			c1.18,0.82,2.74,1.02,3.87,2.18c0.72,0.75,0.93,1.18,0.45,2.12c-1.42,2.77-2.8,5.55-4.06,8.4
			C118.67,14.58,117.95,14.74,117.08,15.01z"/>
	</g>
</g>
</svg>
