<?xml version="1.0" encoding="utf-8"?>
<!-- Generator: Adobe Illustrator 26.4.1, SVG Export Plug-In . SVG Version: 6.00 Build 0)  -->
<svg version="1.1" id="Слой_1" xmlns="http://www.w3.org/2000/svg" xmlns:xlink="http://www.w3.org/1999/xlink" x="0px" y="0px"
	 viewBox="0 0 159.26 66" style="enable-background:new 0 0 159.26 66;" xml:space="preserve">
<style type="text/css">
	.st0{fill:url(#SVGID_1_);}
	.st1{fill:url(#SVGID_00000067930737638161898120000014776952980553778058_);}
</style>
<g id="a0nB6A_00000129893458107205050290000013706563583725587328_">
	<g>
		<linearGradient id="SVGID_1_" gradientUnits="userSpaceOnUse" x1="34.5154" y1="2.3294" x2="44.4609" y2="80.3633">
			<stop  offset="0" style="stop-color:#D58C0A"/>
			<stop  offset="1" style="stop-color:#FFE58E"/>
		</linearGradient>
		<path class="st0" d="M77.23,31.25c-2.14,4.41-3.86,9.03-6.49,13.21c-2.48,3.96-5.23,7.7-8.54,11.02
			c-1.71,1.72-3.83,2.73-6.07,3.54c-4.67,1.68-8.12-1.15-9.52-4.92c-0.31-0.83-0.56-1.69-0.96-2.9c-0.72,4.39-1.91,8.29-2.27,12.37
			c-0.07,0.74,0.19,3.36-1.94,1.11c-0.11-0.12-0.49-0.21-0.55-0.14c-1.97,2.31-3.28-1.22-5.14-0.6c-0.43,0.14-0.35-0.92-0.32-1.43
			c0.21-3.62,1.19-7.11,1.9-10.65c2.1-10.47,5.06-20.73,7.92-31.02c0.07-0.25,0.11-0.51-0.15-0.91c-2.36,4.22-4.79,8.41-7.08,12.67
			c-3.38,6.3-6.64,12.67-10.02,18.98c-0.3,0.56-0.48,2.83-1.93,0.61c-0.37-0.56-0.88,0.18-1.22,0.39c-1.85,1.13-3.73,0.23-5.51-0.06
			c-1.02-0.16-1.04-1.64-1.03-2.72c0.01-4.72,0-9.45,0-14.68c-1.22,1.06-1.21,1.98-1.48,2.76c-2.49,7.36-4.97,14.73-7.4,22.11
			c-0.3,0.9-1,1.49-1.4,2.28c-0.47,0.92-1.23,0.68-1.75,0.36c-1.34-0.82-2.59-1.6-4.32-1.57c-1.13,0.02-0.92-1.1-0.64-1.94
			C3.25,53.47,5.14,47.83,7,42.18c3.11-9.46,6.52-18.81,10.47-27.96c0.81-1.88,1.6-3.78,2.47-5.64c0.55-1.19,1.12-2.15,2.84-1.22
			c1.11,0.6,2.56,0.41,3.81,1.12c0.78,0.44,1.07,0.81,0.91,1.5c-1.26,5.39-0.93,10.9-1.24,16.36c-0.21,3.72-0.04,7.47-0.04,11.21
			c0.65-0.12,0.72-0.92,1-1.47c5.33-10.3,11.18-20.31,17.39-30.1c1.28-2.02,3.25-3.29,4.7-5.09c0.47-0.59,1.02-0.86,1.8,0.1
			c0.8,0.98,2.3,1.06,3.57,1.33c2.95,0.63,4.22,2.98,3.23,5.8c-2.45,6.96-4.97,13.9-6.66,21.1c-0.13,0.54-0.38,1.05-0.12,1.78
			c1.49-2.52,2.9-4.96,4.36-7.37c1.12-1.85,2.06-3.89,3.52-5.45c3.18-3.41,7.35-3.09,11.56-2.61c3.74,0.43,5.96,2.76,6.95,5.93
			c0.75,2.42,0.79,5.18,0.09,7.8c-0.18,0.67-0.29,1.36-0.43,2.03L77.23,31.25z M70.56,25.85c-0.09-1.06,0.24-2.66-1.51-3.02
			c-2.05-0.42-3.96-0.15-5.39,1.73c-4.71,6.21-7.95,13.12-10.08,20.57c-0.48,1.67-0.57,3.39-0.27,5.15c0.26,1.55,0.9,1.62,2.1,0.92
			c2.09-1.22,3.71-2.93,5.14-4.81c3.85-5.05,6.85-10.59,9.17-16.5C70.2,28.68,70.56,27.41,70.56,25.85z"/>
		
			<linearGradient id="SVGID_00000064333796918680212680000016682895224695517626_" gradientUnits="userSpaceOnUse" x1="108.8556" y1="-7.1974" x2="118.8011" y2="70.8365">
			<stop  offset="0" style="stop-color:#D58C0A"/>
			<stop  offset="1" style="stop-color:#FFE58E"/>
		</linearGradient>
		<path style="fill:url(#SVGID_00000064333796918680212680000016682895224695517626_);" d="M77.18,31.31
			c1.53-2.5,2.17-5.36,3.4-7.99c0.59-1.25,1.08-2.55,1.67-3.81c1.28-2.74,1.28-2.66,4.2-2.02c2.36,0.51,3.62,1.84,3.88,4.22
			c0.38,3.45,0.81,6.9,1.22,10.34c0.12,1.03,0.23,2.06,0.7,3.17c0.55-1.42,1.14-2.83,1.66-4.26c2.1-5.81,4.54-11.48,7.03-17.13
			c0.3-0.68,0.54-1.4,1.17-1.93c0.58-0.48,0.85-0.96,1.53,0c0.58,0.82,1.8,0.52,2.72,0.81c1.76,0.57,2.06,1.64,1.52,3.21
			c-0.13,0.38-0.29,0.76-0.43,1.12c2.66-0.28,4.65-2.48,7.45-2.26c4.39,0.35,7.5,3.58,7.59,8.1c0.11,6.22-3.34,10.53-7.88,14.16
			c-1.95,1.56-4.03,2.97-6.13,4.33c-1.17,0.76-1.5,1.65-1.28,2.98c0.2,1.23,0.72,1.44,1.84,1.09c2.99-0.94,5.47-2.7,7.85-4.65
			c0.81-0.66,1.57-1.38,2.31-2.12c1.26-1.27,2.39-2.63,4.4-1c0.56,0.45,1.34,0.26,1.43-0.95c0.66-8.59,4.27-16.14,8.53-23.44
			c0.65-1.11,1.18-1.99,2.52-0.41c0.66,0.78,1.85,1.38,2.86,1.83c1.7,0.76,1.15,1.64,0.53,2.7c-3.05,5.16-5.48,10.57-6.68,16.48
			c-0.27,1.35-0.45,2.72-0.71,4.32c1.88-0.48,2.87-1.76,3.88-2.89c3.73-4.17,6.47-9.03,9.41-13.74c1.9-3.05,3.58-6.22,5.48-9.27
			c0.8-1.28,2.31-1.23,3.06,0.07c0.35,0.6,0.69,0.36,0.98,0.28c0.67-0.21,0.95-0.02,0.89,0.65c-0.07,0.7-0.07,0.74,0.72,0.46
			c1.14-0.4,1.65-0.11,1.13,1.43c-2.84,8.37-8.09,15.6-11.05,23.92c-2.49,7-4.99,13.98-6.91,21.16c-0.77,2.9-1.03,3.07-3.8,1.82
			c-1.19-0.53-3.04-0.19-3.52-1.46c-0.54-1.46,0.34-3.09,0.78-4.59c1.08-3.71,2.3-7.38,3.58-11.4c-4.27,1.97-8.21,2.97-10.93-1.79
			c-4.05,3.66-8.13,7.2-13.18,9.34c-2.25,0.95-4.63,1.47-7.07,0.62c-3.31-1.16-5.46-4.09-5.62-7.65c-0.18-4.04,0.15-8.02,1.23-11.95
			c-1.62,2.6-2.29,5.55-3.22,8.37c-1.41,4.27-2.55,8.63-3.84,12.95c-0.28,0.93-0.4,2.13-1.89,0.85c-0.44-0.38-1.45-0.83-2.33-0.01
			c-0.55,0.51-3.03-0.86-2.9-1.57c0.69-3.68-1.14-7.02-1.34-10.59c-0.18-3.08-0.77-6.14-1.25-9.76c-2.66,7.37-4.7,14.33-5.73,21.55
			c-0.08,0.59,0.33,1.54,0.06,1.75c-1.06,0.84,0.51,3.23-1.46,3c-1.15-0.14-2.32,0.7-3.48-0.21c-0.7-0.55-2.33,0.27-2.58-0.54
			c-0.37-1.18-0.1-2.61,0.07-3.91c0.95-7.61,3.09-14.93,5.67-22.13c0.2-0.56,0.64-1.11,0.37-1.78
			C77.23,31.25,77.18,31.31,77.18,31.31z M109.48,31.68c2.53-1.79,4.21-3.82,5.26-6.36c0.38-0.91,0.58-1.91,0.08-2.8
			c-0.39-0.7-1.03-1.29-1.64-0.09C111.72,25.3,110.41,28.23,109.48,31.68z"/>
	</g>
</g>
</svg>
