<?xml version="1.0" encoding="utf-8"?>
<!-- Generator: Adobe Illustrator 26.4.1, SVG Export Plug-In . SVG Version: 6.00 Build 0)  -->
<svg version="1.1" id="Слой_1" xmlns="http://www.w3.org/2000/svg" xmlns:xlink="http://www.w3.org/1999/xlink" x="0px" y="0px"
	 viewBox="0 0 100.71 66" style="enable-background:new 0 0 100.71 66;" xml:space="preserve">
<style type="text/css">
	.st0{fill:url(#SVGID_1_);}
	.st1{fill:url(#SVGID_00000030487420469622071600000011959019778227867266_);}
</style>
<g id="LIA26P_00000127748530268189874490000004216056804885086107_">
	<g>
		<linearGradient id="SVGID_1_" gradientUnits="userSpaceOnUse" x1="69.1215" y1="43.4013" x2="61.2133" y2="5.0769">
			<stop  offset="0" style="stop-color:#F58A1D"/>
			<stop  offset="1" style="stop-color:#FB2B02"/>
		</linearGradient>
		<path class="st0" d="M73.68,46.3c-3.86,4.89-7.5,9.5-11.14,14.11c-0.39,0.49-0.82,0.94-1.19,1.44c-0.74,0.98-1.29,2.52-2.62,2.42
			c-1.71-0.13-3.28-1.17-4.57-2.27c-0.6-0.51-0.67-1.75-0.42-2.78c0.87-3.61,1.68-7.24,2.57-11.1c-2.8,2.13-5.3,4.37-8.3,5.9
			c-2.43,1.24-4.98,2.26-7.7,1.56c-3.47-0.9-5.49-3.93-5.62-7.65c-0.21-6.26,1.69-12.05,3.9-17.77c0.34-0.87,0.79-1.7,1.09-2.59
			c1.03-3.07,3.09-4.76,6.19-5.93c4.82-1.82,9.16,2.57,9.26,6.58c0.12,4.85-2.15,8.48-5.46,11.64c-2.09,1.99-4.57,3.48-6.92,5.14
			c-0.5,0.35-1.17,0.57-1.3,1.27c-0.14,0.8-0.23,1.71,0.26,2.35c0.58,0.77,1.44,0.16,2.07-0.08c3.45-1.34,6.23-3.68,8.83-6.24
			c0.97-0.96,1.72-1.4,3.17-0.63c1.89,1.01,2.42,0.6,3.09-1.44c1.98-6.05,4.18-12.02,6.64-17.89c1.15-2.75,1.36-2.83,4.02-1.32
			c2.95,1.67,2.94,1.67,1.61,4.71c-2.8,6.39-5.02,12.99-7.04,19.66c-0.33,1.1-0.51,2.25-1.21,3.24c0.79,0.32,0.87-0.32,1.09-0.59
			c3.39-4.13,6.43-8.52,9.43-12.94c0.71-1.05,1.34-1.62,2.62-0.72c0.87,0.61,2.03,0.61,3.04,1.17c0.92,0.51,1.09,1.01,1.11,1.79
			c0.04,1.44,0.01,2.87,0.2,4.39c4.47-9.09,8.84-18.21,14.49-26.76c0.11,1.23,0.09,1.97,1.76,1.64c0.94-0.18,1.84,1.4,2.83,2.1
			c0.45,0.32-0.37,1.44-0.77,2.14c-4.55,7.97-8.87,16.05-12.55,24.45c-1.33,3.03-2.55,6.1-3.45,9.28c-0.37,1.3-0.83,2.55-2.67,1.69
			c-0.33-0.15-0.93-0.06-1.25,0.15c-1.91,1.25-2.55,0.03-3.21-1.48C74.38,52.27,74.06,49.44,73.68,46.3z M43.4,36.42
			c2.25-1.73,3.78-3.42,4.69-5.59c0.28-0.68,0.58-1.39,0.41-2.17c-0.11-0.51-0.36-0.96-0.88-1.13c-0.7-0.23-0.81,0.4-1.01,0.81
			C45.38,30.79,44.29,33.28,43.4,36.42z"/>
		
			<linearGradient id="SVGID_00000163779198709804897580000005536226594345129620_" gradientUnits="userSpaceOnUse" x1="28.4402" y1="51.7959" x2="20.532" y2="13.4715">
			<stop  offset="0" style="stop-color:#F58A1D"/>
			<stop  offset="1" style="stop-color:#FB2B02"/>
		</linearGradient>
		<path style="fill:url(#SVGID_00000163779198709804897580000005536226594345129620_);" d="M16.96,33.69
			c-1.28,4.47-2.62,8.92-3.84,13.41c-1.51,5.53-2.9,11.09-4.39,16.63c-0.25,0.94-0.41,2.48-2.07,1.19
			c-0.09-0.07-0.21-0.12-0.31-0.18c-1.17,2.31-2.7-0.71-4.03,0.26c-0.34,0.25-0.44-0.45-0.52-0.78c-0.29-1.13,0.06-2.23,0.32-3.31
			c3.76-15.45,8.29-30.68,13.52-45.69c0.08-0.23,0.21-0.46,0.26-0.7c0.13-0.56,1.58-2.48,2.07-2.7c1.61-0.73,2.71,0.24,4.09,0.89
			c1.52,0.71,1.46,1.81,1.52,2.95c0.25,4.65,0.31,9.31,0.63,13.96c0.31,4.44,0.86,8.87,1.71,13.34c1.43-4.6,2.86-9.19,4.3-13.79
			c2.68-8.56,5.62-17.02,9.65-25.06c0.5-1.01,0.94-2.05,1.77-2.82c0.69-0.65,1.22-1.59,2.51-0.39c0.65,0.6,1.87,0.58,2.77,1.46
			c0.92,0.91,1.02,1.5,0.52,2.51c-3.31,6.73-6.31,13.6-8.6,20.74c-2.71,8.45-5.28,16.94-7.88,25.43c-1.22,3.99-2.51,7.98-3.29,12.09
			c-0.21,1.12-0.82,1.75-1.74,1.21c-1.3-0.75-2.75-0.59-4.1-0.97c-1.14-0.32-1.35-0.74-1.43-1.69c-0.72-8.58-2.15-17.09-2.74-25.69
			c-0.05-0.74-0.19-1.48-0.29-2.23C17.22,33.73,17.09,33.71,16.96,33.69z"/>
	</g>
</g>
</svg>
